<svg version="1.1" id="Layer_1" xmlns="http://www.w3.org/2000/svg" xmlns:xlink="http://www.w3.org/1999/xlink" x="0px" y="0px"
	 width="100%" viewBox="0 0 1827 3515" enable-background="new 0 0 1827 3515" xml:space="preserve">
<path fill="#00D8FF" opacity="1.000000" stroke="none" 
	d="
M834.000000,3518.000000 
	C556.000000,3518.000000 279.000000,3518.000000 2.000000,3518.000000 
	C2.000000,2346.000000 2.000000,1174.000000 2.000000,2.000000 
	C611.333313,2.000000 1220.666626,2.000000 1830.000000,2.000000 
	C1830.000000,1174.000000 1830.000000,2346.000000 1830.000000,3518.000000 
	C1498.333374,3518.000000 1166.666626,3518.000000 834.000000,3518.000000 
M266.108093,1597.100342 
	C266.741547,1597.360962 267.375031,1597.621460 269.849640,1598.254028 
	C421.298309,1598.254028 572.746948,1598.254028 725.275085,1598.254028 
	C725.275085,1996.815186 725.275085,2394.068848 725.275085,2792.000000 
	C729.299316,2792.000000 732.247620,2792.000000 735.195984,2792.000000 
	C851.473389,2792.000000 967.750793,2792.002197 1084.028198,2791.986084 
	C1086.685669,2791.985840 1089.343262,2791.778564 1093.102417,2791.810547 
	C1093.335693,2791.209961 1093.569092,2790.609131 1094.144531,2788.160156 
	C1094.163208,2784.161377 1094.198242,2780.162842 1094.198364,2776.164062 
	C1094.200806,2388.894287 1094.200684,2001.624512 1094.200684,1614.354736 
	C1094.200684,1611.355225 1094.086548,1608.349731 1094.240601,1605.358154 
	C1094.353882,1603.158447 1094.818726,1600.976807 1095.193359,1598.315430 
	C1146.387207,1598.315430 1197.011841,1598.315308 1247.636475,1598.315308 
	C1298.628174,1598.315308 1349.619751,1598.340820 1400.611450,1598.308228 
	C1451.088867,1598.275757 1501.569214,1598.456909 1551.763672,1598.191284 
	C1551.763672,1474.558594 1551.763672,1352.371704 1551.763672,1229.103760 
	C1399.090698,1229.103760 1246.984863,1229.103760 1093.959351,1229.103760 
	C1093.959351,1075.211426 1093.959351,922.399902 1093.959351,769.726624 
	C1079.488892,767.640320 732.952698,768.297974 724.789124,770.596497 
	C724.789124,923.083252 724.789124,1075.880249 724.789124,1229.430054 
	C719.759705,1229.430054 715.813782,1229.429932 711.867859,1229.429932 
	C567.891479,1229.429932 423.915131,1229.425781 279.938782,1229.451904 
	C275.956970,1229.452637 271.975220,1229.776001 266.815063,1229.912354 
	C266.654572,1230.612549 266.494080,1231.312622 266.051727,1233.866943 
	C266.037140,1352.581421 266.020996,1471.295776 266.021454,1590.010254 
	C266.021454,1591.998291 266.223724,1593.986206 266.108093,1597.100342 
z"/>
<path fill="#000000" opacity="1.000000" stroke="none" 
	d="
M1092.000732,2791.667725 
	C1089.343262,2791.778564 1086.685669,2791.985840 1084.028198,2791.986084 
	C967.750793,2792.002197 851.473389,2792.000000 735.195984,2792.000000 
	C732.247620,2792.000000 729.299316,2792.000000 725.275085,2792.000000 
	C725.275085,2394.068848 725.275085,1996.815186 725.275085,1598.254028 
	C572.746948,1598.254028 421.298309,1598.254028 268.728577,1597.685791 
	C267.276306,1596.631348 266.851013,1596.250244 266.331635,1595.974243 
	C266.223724,1593.986206 266.021454,1591.998291 266.021454,1590.010254 
	C266.020996,1471.295776 266.037140,1352.581421 266.552673,1232.667969 
	C267.506226,1231.048462 267.819489,1230.541748 267.993439,1229.948975 
	C271.975220,1229.776001 275.956970,1229.452637 279.938782,1229.451904 
	C423.915131,1229.425781 567.891479,1229.429932 711.867859,1229.429932 
	C715.813782,1229.429932 719.759705,1229.430054 724.789124,1229.430054 
	C724.789124,1075.880249 724.789124,923.083252 724.789124,770.596497 
	C732.952698,768.297974 1079.488892,767.640320 1093.959351,769.726624 
	C1093.959351,922.399902 1093.959351,1075.211426 1093.959351,1229.103760 
	C1246.984863,1229.103760 1399.090698,1229.103760 1551.763672,1229.103760 
	C1551.763672,1352.371704 1551.763672,1474.558594 1551.763672,1598.191284 
	C1501.569214,1598.456909 1451.088867,1598.275757 1400.611450,1598.308228 
	C1349.619751,1598.340820 1298.628174,1598.315308 1247.636475,1598.315308 
	C1197.011841,1598.315308 1146.387207,1598.315430 1095.193359,1598.315430 
	C1094.818726,1600.976807 1094.353882,1603.158447 1094.240601,1605.358154 
	C1094.086548,1608.349731 1094.200684,1611.355225 1094.200684,1614.354736 
	C1094.200684,2001.624512 1094.200806,2388.894287 1094.198364,2776.164062 
	C1094.198242,2780.162842 1094.163208,2784.161377 1093.624512,2789.304199 
	C1092.672607,2790.796875 1092.304688,2791.203369 1092.000732,2791.667725 
M349.831696,1518.425537 
	C501.071350,1518.425537 652.311035,1518.425537 804.831543,1518.425537 
	C804.831543,1916.820435 804.831543,2314.202148 804.831543,2711.621338 
	C875.303711,2711.621338 944.491516,2711.621338 1013.334167,2711.621338 
	C1013.842346,2710.809082 1014.099121,2710.562256 1014.155701,2710.275635 
	C1014.283936,2709.625000 1014.374756,2708.954834 1014.374817,2708.292725 
	C1014.392334,2314.338135 1014.401001,1920.383301 1014.410645,1526.428589 
	C1014.410645,1525.428711 1014.420532,1524.428955 1014.429810,1523.429077 
	C1014.432922,1523.095947 1014.418030,1522.758423 1014.465332,1522.430664 
	C1014.560120,1521.773193 1014.650940,1521.109619 1014.827637,1520.471924 
	C1014.907898,1520.182495 1015.179810,1519.941040 1015.381653,1519.691528 
	C1015.591248,1519.432129 1015.821655,1519.189453 1016.823303,1518.058594 
	C1168.245483,1518.058594 1320.392578,1518.058594 1472.418335,1518.058594 
	C1474.413574,1501.884644 1473.716675,1317.009766 1471.472534,1308.877930 
	C1319.593018,1308.877930 1167.429565,1308.877930 1014.221924,1308.877930 
	C1014.221924,1155.085327 1014.221924,1002.304749 1014.221924,849.308716 
	C944.053101,849.308716 874.936096,849.308716 804.662354,849.308716 
	C804.662354,1002.778442 804.662354,1155.567627 804.662354,1309.293579 
	C651.330383,1309.293579 499.155151,1309.293579 346.017303,1309.293579 
	C346.017303,1313.479980 346.017303,1316.732544 346.017303,1319.985107 
	C346.017303,1352.314697 345.983582,1384.644287 346.026703,1416.973877 
	C346.070709,1449.965454 346.190216,1482.957153 346.044434,1517.133545 
	C346.691040,1517.445923 347.337646,1517.758301 349.831696,1518.425537 
z"/>
<path fill="#001D21" opacity="1.000000" stroke="none" 
	d="
M267.404236,1229.930664 
	C267.819489,1230.541748 267.506226,1231.048462 266.693604,1231.740967 
	C266.494080,1231.312622 266.654572,1230.612549 267.404236,1229.930664 
z"/>
<path fill="#001D21" opacity="1.000000" stroke="none" 
	d="
M266.219849,1596.537354 
	C266.851013,1596.250244 267.276306,1596.631348 267.807983,1597.499756 
	C267.375031,1597.621460 266.741547,1597.360962 266.219849,1596.537354 
z"/>
<path fill="#000C0E" opacity="1.000000" stroke="none" 
	d="
M1092.551514,2791.739258 
	C1092.304688,2791.203369 1092.672607,2790.796875 1093.453491,2790.228516 
	C1093.569092,2790.609131 1093.335693,2791.209961 1092.551514,2791.739258 
z"/>
<path fill="#00D8FF" opacity="1.000000" stroke="none" 
	d="
M346.276642,1515.948730 
	C346.190216,1482.957153 346.070709,1449.965454 346.026703,1416.973877 
	C345.983582,1384.644287 346.017303,1352.314697 346.017303,1319.985107 
	C346.017303,1316.732544 346.017303,1313.479980 346.017303,1309.293579 
	C499.155151,1309.293579 651.330383,1309.293579 804.662354,1309.293579 
	C804.662354,1155.567627 804.662354,1002.778442 804.662354,849.308716 
	C874.936096,849.308716 944.053101,849.308716 1014.221924,849.308716 
	C1014.221924,1002.304749 1014.221924,1155.085327 1014.221924,1308.877930 
	C1167.429565,1308.877930 1319.593018,1308.877930 1471.472534,1308.877930 
	C1473.716675,1317.009766 1474.413574,1501.884644 1472.418335,1518.058594 
	C1320.392578,1518.058594 1168.245483,1518.058594 1016.823303,1518.058594 
	C1015.821655,1519.189453 1015.591248,1519.432129 1015.381653,1519.691528 
	C1015.179810,1519.941040 1014.907898,1520.182495 1014.827637,1520.471924 
	C1014.650940,1521.109619 1014.560120,1521.773193 1014.465332,1522.430664 
	C1014.418030,1522.758423 1014.432922,1523.095947 1014.429810,1523.429077 
	C1014.420532,1524.428955 1014.410645,1525.428711 1014.410645,1526.428589 
	C1014.401001,1920.383301 1014.392334,2314.338135 1014.374817,2708.292725 
	C1014.374756,2708.954834 1014.283936,2709.625000 1014.155701,2710.275635 
	C1014.099121,2710.562256 1013.842346,2710.809082 1013.334167,2711.621338 
	C944.491516,2711.621338 875.303711,2711.621338 804.831543,2711.621338 
	C804.831543,2314.202148 804.831543,1916.820435 804.831543,1518.425537 
	C652.311035,1518.425537 501.071350,1518.425537 348.714600,1517.827881 
	C347.242340,1516.715332 346.802063,1516.288086 346.276642,1515.948730 
z"/>
<path fill="#00ACCB" opacity="1.000000" stroke="none" 
	d="
M346.160522,1516.541138 
	C346.802063,1516.288086 347.242340,1516.715332 347.790833,1517.650391 
	C347.337646,1517.758301 346.691040,1517.445923 346.160522,1516.541138 
z"/>
</svg>