<svg version="1.1" id="Layer_1" xmlns="http://www.w3.org/2000/svg" xmlns:xlink="http://www.w3.org/1999/xlink" x="0px" y="0px"
	 width="100%" viewBox="0 0 512 512" enable-background="new 0 0 512 512" xml:space="preserve">
<rect x="0" y="0" width="100%" height="100%" fill="white" />
<path fill="#00D8FE" opacity="1.000000" stroke="none"
	  d="
M268.000000,513.000000
	C178.688339,513.000000 89.876678,513.000000 1.032508,513.000000
	C1.032508,342.396637 1.032508,171.793289 1.032508,1.094962
	C171.561676,1.094962 342.123444,1.094962 512.842590,1.094962
	C512.842590,171.666550 512.842590,342.333252 512.842590,513.000000
	C431.459930,513.000000 349.979950,513.000000 268.000000,513.000000
M103.501328,472.999756
	C141.252274,472.999756 179.003220,472.999756 216.587341,472.999756
	C216.587341,422.555695 216.587341,372.818848 216.587341,322.918823
	C194.060440,322.918823 171.897903,322.921570 149.735382,322.917358
	C141.700790,322.915833 140.003052,321.261871 140.001968,313.450653
	C139.999069,292.784119 139.997696,272.117554 140.002792,251.451019
	C140.004608,244.132355 141.776047,242.320740 149.090042,242.313263
	C169.756577,242.292160 190.423141,242.305771 211.089691,242.305710
	C212.879639,242.305710 214.669586,242.305695 216.952072,242.305695
	C216.952072,240.045700 216.952042,238.257065 216.952072,236.468430
	C216.952393,215.468552 216.938736,194.468658 216.961945,173.468811
	C216.968521,167.532364 218.693954,165.680664 224.633026,165.662628
	C246.132706,165.597305 267.632782,165.602188 289.132507,165.656555
	C295.463562,165.672562 297.054291,167.364685 297.060455,173.710709
	C297.080841,194.710571 297.068756,215.710480 297.069153,236.710358
	C297.069183,238.480560 297.069153,240.250778 297.069153,242.305710
	C299.551727,242.305710 301.373505,242.305725 303.195282,242.305725
	C323.861816,242.305817 344.528412,242.287338 365.194916,242.316376
	C372.173920,242.326187 373.995941,244.214005 373.997711,251.211136
	C374.002960,272.044342 374.002167,292.877563 373.998291,313.710785
	C373.996887,321.237701 372.277435,322.914124 364.529785,322.916565
	C343.863220,322.923065 323.196686,322.918823 302.530121,322.918854
	C300.781158,322.918854 299.032196,322.918854 297.444092,322.918854
	C297.444092,373.390564 297.444092,423.119446 297.444092,472.758331
	C341.095795,472.758331 384.372192,472.758331 427.829315,472.758331
	C427.911133,471.905060 428.024719,471.273193 428.024780,470.641357
	C428.034332,386.641846 428.055481,302.642303 427.909637,218.643066
	C427.906372,216.755966 426.457367,214.303665 424.917694,213.069427
	C377.903717,175.381439 330.793884,137.813034 283.698456,100.226677
	C274.774719,93.104736 265.848938,85.985359 256.987427,78.915314
	C201.050217,123.601746 145.555069,167.984482 89.944138,212.221649
	C87.018089,214.549286 85.881935,216.733337 85.886894,220.444427
	C85.996964,302.777161 85.971130,385.110046 85.971130,467.442902
	C85.971130,469.207642 85.971130,470.972351 85.971130,472.999756
	C91.882561,472.999756 97.192268,472.999756 103.501328,472.999756
M285.021515,381.500000
	C285.021606,361.000397 285.017487,340.500824 285.023926,320.001221
	C285.026337,312.414886 286.525574,310.857269 293.943054,310.851318
	C314.776306,310.834564 335.609528,310.845428 356.442780,310.845428
	C358.207214,310.845428 359.971649,310.845428 361.732574,310.845428
	C361.732574,291.744171 361.732574,273.305878 361.732574,254.552536
	C359.658905,254.552536 357.846558,254.552567 356.034210,254.552567
	C335.867615,254.552536 315.701050,254.556381 295.534454,254.550735
	C286.290985,254.548157 285.022827,253.303574 285.022095,244.285538
	C285.020447,223.952286 285.021545,203.619049 285.021515,183.285797
	C285.021515,181.528549 285.021515,179.771286 285.021515,178.069580
	C266.027466,178.069580 247.743042,178.069580 228.973602,178.069580
	C228.973602,179.871780 228.973602,181.496429 228.973602,183.121078
	C228.973511,203.787659 228.977539,224.454239 228.971176,245.120819
	C228.968781,252.854843 227.333572,254.534531 219.609375,254.543839
	C198.942825,254.568741 178.276230,254.552490 157.609650,254.552567
	C155.850250,254.552567 154.090866,254.552536 152.268738,254.552536
	C152.268738,273.589508 152.268738,292.006470 152.268738,310.845428
	C154.158554,310.845428 155.785934,310.845428 157.413300,310.845428
	C178.079880,310.845428 198.746460,310.839844 219.413040,310.848206
	C227.573669,310.851501 228.971649,312.250946 228.972107,320.374695
	C228.974854,369.374481 228.973541,418.374298 228.973602,467.374084
	C228.973602,469.145752 228.973602,470.917419 228.973602,472.709106
	C247.932938,472.709106 266.335052,472.709106 285.021515,472.709106
	C285.021515,442.446289 285.021515,412.473145 285.021515,381.500000
M157.471344,142.965622
	C188.940033,117.831078 220.433777,92.727753 251.843033,67.519142
	C255.425995,64.643517 258.488373,64.405540 262.019012,67.393578
	C266.080902,70.831215 270.327240,74.050667 274.487091,77.372864
	C324.933441,117.661179 375.379364,157.949982 425.823425,198.241180
	C435.833801,206.236816 445.804199,214.282959 455.852722,222.230301
	C462.616119,227.579422 470.980865,225.176010 472.698608,217.352524
	C473.822876,212.232086 470.799896,208.969711 467.098541,206.016968
	C417.921570,166.786163 368.775177,127.516968 319.618073,88.261208
	C301.280823,73.617485 282.955353,58.958878 264.582214,44.360256
	C258.837585,39.795780 255.185516,39.860340 249.416061,44.392197
	C245.490326,47.475826 241.636597,50.650932 237.734085,53.764324
	C188.697388,92.885460 139.655945,132.000610 90.619766,171.122391
	C75.662598,183.055435 60.709064,194.993057 45.773796,206.953476
	C42.308365,209.728683 40.120525,213.142136 41.440670,217.799088
	C43.623955,225.500854 51.613415,227.419662 58.573627,221.873352
	C91.370506,195.738693 124.140213,169.569931 157.471344,142.965622
z" />
<path fill="#000000" opacity="1.000000" stroke="none"
	  d="
M103.001648,472.999756
	C97.192268,472.999756 91.882561,472.999756 85.971130,472.999756
	C85.971130,470.972351 85.971130,469.207642 85.971130,467.442902
	C85.971130,385.110046 85.996964,302.777161 85.886894,220.444427
	C85.881935,216.733337 87.018089,214.549286 89.944138,212.221649
	C145.555069,167.984482 201.050217,123.601746 256.987427,78.915314
	C265.848938,85.985359 274.774719,93.104736 283.698456,100.226677
	C330.793884,137.813034 377.903717,175.381439 424.917694,213.069427
	C426.457367,214.303665 427.906372,216.755966 427.909637,218.643066
	C428.055481,302.642303 428.034332,386.641846 428.024780,470.641357
	C428.024719,471.273193 427.911133,471.905060 427.829315,472.758331
	C384.372192,472.758331 341.095795,472.758331 297.444092,472.758331
	C297.444092,423.119446 297.444092,373.390564 297.444092,322.918854
	C299.032196,322.918854 300.781158,322.918854 302.530121,322.918854
	C323.196686,322.918823 343.863220,322.923065 364.529785,322.916565
	C372.277435,322.914124 373.996887,321.237701 373.998291,313.710785
	C374.002167,292.877563 374.002960,272.044342 373.997711,251.211136
	C373.995941,244.214005 372.173920,242.326187 365.194916,242.316376
	C344.528412,242.287338 323.861816,242.305817 303.195282,242.305725
	C301.373505,242.305725 299.551727,242.305710 297.069153,242.305710
	C297.069153,240.250778 297.069183,238.480560 297.069153,236.710358
	C297.068756,215.710480 297.080841,194.710571 297.060455,173.710709
	C297.054291,167.364685 295.463562,165.672562 289.132507,165.656555
	C267.632782,165.602188 246.132706,165.597305 224.633026,165.662628
	C218.693954,165.680664 216.968521,167.532364 216.961945,173.468811
	C216.938736,194.468658 216.952393,215.468552 216.952072,236.468430
	C216.952042,238.257065 216.952072,240.045700 216.952072,242.305695
	C214.669586,242.305695 212.879639,242.305710 211.089691,242.305710
	C190.423141,242.305771 169.756577,242.292160 149.090042,242.313263
	C141.776047,242.320740 140.004608,244.132355 140.002792,251.451019
	C139.997696,272.117554 139.999069,292.784119 140.001968,313.450653
	C140.003052,321.261871 141.700790,322.915833 149.735382,322.917358
	C171.897903,322.921570 194.060440,322.918823 216.587341,322.918823
	C216.587341,372.818848 216.587341,422.555695 216.587341,472.999756
	C179.003220,472.999756 141.252274,472.999756 103.001648,472.999756
z" />
<path fill="#000000" opacity="1.000000" stroke="none"
	  d="
M285.021515,382.000000
	C285.021515,412.473145 285.021515,442.446289 285.021515,472.709106
	C266.335052,472.709106 247.932938,472.709106 228.973602,472.709106
	C228.973602,470.917419 228.973602,469.145752 228.973602,467.374084
	C228.973541,418.374298 228.974854,369.374481 228.972107,320.374695
	C228.971649,312.250946 227.573669,310.851501 219.413040,310.848206
	C198.746460,310.839844 178.079880,310.845428 157.413300,310.845428
	C155.785934,310.845428 154.158554,310.845428 152.268738,310.845428
	C152.268738,292.006470 152.268738,273.589508 152.268738,254.552536
	C154.090866,254.552536 155.850250,254.552567 157.609650,254.552567
	C178.276230,254.552490 198.942825,254.568741 219.609375,254.543839
	C227.333572,254.534531 228.968781,252.854843 228.971176,245.120819
	C228.977539,224.454239 228.973511,203.787659 228.973602,183.121078
	C228.973602,181.496429 228.973602,179.871780 228.973602,178.069580
	C247.743042,178.069580 266.027466,178.069580 285.021515,178.069580
	C285.021515,179.771286 285.021515,181.528549 285.021515,183.285797
	C285.021545,203.619049 285.020447,223.952286 285.022095,244.285538
	C285.022827,253.303574 286.290985,254.548157 295.534454,254.550735
	C315.701050,254.556381 335.867615,254.552536 356.034210,254.552567
	C357.846558,254.552567 359.658905,254.552536 361.732574,254.552536
	C361.732574,273.305878 361.732574,291.744171 361.732574,310.845428
	C359.971649,310.845428 358.207214,310.845428 356.442780,310.845428
	C335.609528,310.845428 314.776306,310.834564 293.943054,310.851318
	C286.525574,310.857269 285.026337,312.414886 285.023926,320.001221
	C285.017487,340.500824 285.021606,361.000397 285.021515,382.000000
z" />
<path fill="#000202" opacity="1.000000" stroke="none"
	  d="
M157.195496,143.189484
	C124.140213,169.569931 91.370506,195.738693 58.573627,221.873352
	C51.613415,227.419662 43.623955,225.500854 41.440670,217.799088
	C40.120525,213.142136 42.308365,209.728683 45.773796,206.953476
	C60.709064,194.993057 75.662598,183.055435 90.619766,171.122391
	C139.655945,132.000610 188.697388,92.885460 237.734085,53.764324
	C241.636597,50.650932 245.490326,47.475826 249.416061,44.392197
	C255.185516,39.860340 258.837585,39.795780 264.582214,44.360256
	C282.955353,58.958878 301.280823,73.617485 319.618073,88.261208
	C368.775177,127.516968 417.921570,166.786163 467.098541,206.016968
	C470.799896,208.969711 473.822876,212.232086 472.698608,217.352524
	C470.980865,225.176010 462.616119,227.579422 455.852722,222.230301
	C445.804199,214.282959 435.833801,206.236816 425.823425,198.241180
	C375.379364,157.949982 324.933441,117.661179 274.487091,77.372864
	C270.327240,74.050667 266.080902,70.831215 262.019012,67.393578
	C258.488373,64.405540 255.425995,64.643517 251.843033,67.519142
	C220.433777,92.727753 188.940033,117.831078 157.195496,143.189484
z" />
</svg>